<svg width="21" height="19" viewBox="0 0 21 19" fill="none" xmlns="http://www.w3.org/2000/svg">
<g id="Union">
<path fill-rule="evenodd" clip-rule="evenodd" d="M10.6634 9.79184L18.416 17.5445L18.9997 16.9608L11.2471 9.2082L18.416 2.03922L17.8324 1.45558L10.6634 8.62455L3.49444 1.45557L2.91079 2.03921L10.0798 9.2082L2.32715 16.9608L2.91079 17.5445L10.6634 9.79184Z" fill="black"/>
<path d="M18.416 17.5445L17.7089 18.2516L18.416 18.9587L19.1231 18.2516L18.416 17.5445ZM10.6634 9.79184L11.3705 9.08473L10.6634 8.37763L9.95631 9.08473L10.6634 9.79184ZM18.9997 16.9608L19.7068 17.6679L20.4139 16.9608L19.7068 16.2537L18.9997 16.9608ZM11.2471 9.2082L10.54 8.50109L9.83285 9.2082L10.54 9.9153L11.2471 9.2082ZM18.416 2.03922L19.1231 2.74633L19.8303 2.03922L19.1231 1.33211L18.416 2.03922ZM17.8324 1.45558L18.5395 0.74847L17.8324 0.0413629L17.1253 0.74847L17.8324 1.45558ZM10.6634 8.62455L9.95631 9.33166L10.6634 10.0388L11.3705 9.33166L10.6634 8.62455ZM3.49444 1.45557L4.20154 0.74846L3.49444 0.0413529L2.78733 0.74846L3.49444 1.45557ZM2.91079 2.03921L2.20369 1.3321L1.49658 2.03921L2.20369 2.74632L2.91079 2.03921ZM10.0798 9.2082L10.7869 9.9153L11.494 9.2082L10.7869 8.50109L10.0798 9.2082ZM2.32715 16.9608L1.62004 16.2537L0.912935 16.9608L1.62004 17.6679L2.32715 16.9608ZM2.91079 17.5445L2.20369 18.2516L2.91079 18.9587L3.6179 18.2516L2.91079 17.5445ZM19.1231 16.8374L11.3705 9.08473L9.95631 10.4989L17.7089 18.2516L19.1231 16.8374ZM18.2926 16.2537L17.7089 16.8374L19.1231 18.2516L19.7068 17.6679L18.2926 16.2537ZM10.54 9.9153L18.2926 17.6679L19.7068 16.2537L11.9542 8.50109L10.54 9.9153ZM17.7089 1.33211L10.54 8.50109L11.9542 9.9153L19.1231 2.74633L17.7089 1.33211ZM17.1253 2.16268L17.7089 2.74633L19.1231 1.33211L18.5395 0.74847L17.1253 2.16268ZM11.3705 9.33166L18.5395 2.16268L17.1253 0.74847L9.95631 7.91745L11.3705 9.33166ZM2.78733 2.16267L9.95631 9.33166L11.3705 7.91745L4.20154 0.74846L2.78733 2.16267ZM3.6179 2.74632L4.20154 2.16267L2.78733 0.74846L2.20369 1.3321L3.6179 2.74632ZM10.7869 8.50109L3.6179 1.3321L2.20369 2.74632L9.37267 9.9153L10.7869 8.50109ZM3.03426 17.6679L10.7869 9.9153L9.37267 8.50109L1.62004 16.2537L3.03426 17.6679ZM3.6179 16.8374L3.03426 16.2537L1.62004 17.6679L2.20369 18.2516L3.6179 16.8374ZM9.95631 9.08473L2.20369 16.8374L3.6179 18.2516L11.3705 10.4989L9.95631 9.08473Z" fill="black"/>
</g>
</svg>
